<svg viewBox="0 0 512 512" fill="none" xmlns="http://www.w3.org/2000/svg">
<path d="M162.088 414.81C137.605 414.81 118.369 407.8 104.379 393.781C90.3884 379.762 83.3933 360.486 83.3933 335.952V233H20V173.857H83.3933V105.952H148.973V173.857H238.598V233H148.973V335.952C148.973 349.095 155.531 355.667 168.646 355.667H234.226V414.81H162.088Z" fill="white"/>
<path d="M345.977 316.238L343.791 222.048H387.51C399.46 222.048 408.933 219.127 415.928 213.286C422.923 207.152 426.421 199.121 426.421 189.19C426.421 178.968 422.777 170.937 415.491 165.095C408.496 159.254 399.023 156.333 387.073 156.333H314.936V95H382.701C405.144 95 424.526 98.9429 440.848 106.829C457.17 114.422 469.703 125.229 478.447 139.248C487.482 153.267 492 169.914 492 189.19C492 207.59 488.211 223.654 480.633 237.381C473.055 251.108 462.416 261.914 448.718 269.8C435.019 277.394 418.988 281.19 400.626 281.19V316.238H345.977ZM366.962 417C357.052 417 349.037 414.225 342.916 408.676C337.087 402.835 334.173 395.387 334.173 386.333C334.173 376.987 337.087 369.54 342.916 363.99C349.037 358.441 357.052 355.667 366.962 355.667H380.078C389.988 355.667 397.857 358.441 403.687 363.99C409.807 369.54 412.868 376.987 412.868 386.333C412.868 395.679 409.807 403.127 403.687 408.676C397.857 414.225 389.842 417 379.641 417H366.962Z" fill="white"/>
<style>
  path {
    fill: #1c1c1c;
  }

  @media (prefers-color-scheme: dark) {
    path {
      fill: #f2f2f2
    }
  }
</style>
</svg>
