<svg width="425" height="152" viewBox="0 0 425 152" fill="none" xmlns="http://www.w3.org/2000/svg">
<path d="M46 112C40.4 112 36 110.4 32.8 107.2C29.6 104 28 99.6 28 94V70.5H13.5V57H28V41.5H43V57H63.5V70.5H43V94C43 97 44.5 98.5 47.5 98.5H62.5V112H46ZM88.0609 89.5L87.5609 68H97.5609C100.294 68 102.461 67.3333 104.061 66C105.661 64.6 106.461 62.7667 106.461 60.5C106.461 58.1667 105.628 56.3333 103.961 55C102.361 53.6667 100.194 53 97.4609 53H80.9609V39H96.4609C101.594 39 106.028 39.9 109.761 41.7C113.494 43.4333 116.361 45.9 118.361 49.1C120.428 52.3 121.461 56.1 121.461 60.5C121.461 64.7 120.594 68.3667 118.861 71.5C117.128 74.6333 114.694 77.1 111.561 78.9C108.428 80.6333 104.761 81.5 100.561 81.5V89.5H88.0609ZM92.8609 112.5C90.5943 112.5 88.7609 111.867 87.3609 110.6C86.0276 109.267 85.3609 107.567 85.3609 105.5C85.3609 103.367 86.0276 101.667 87.3609 100.4C88.7609 99.1333 90.5943 98.5 92.8609 98.5H95.8609C98.1276 98.5 99.9276 99.1333 101.261 100.4C102.661 101.667 103.361 103.367 103.361 105.5C103.361 107.633 102.661 109.333 101.261 110.6C99.9276 111.867 98.0943 112.5 95.7609 112.5H92.8609Z" />
<path d="M172 103.5C168.7 103.5 166.15 102.65 164.35 100.95C162.55 99.2 161.65 96.725 161.65 93.525V66.75H149.8V62.25H161.65V50.625H166.6V62.25H183.325V66.75H166.6V93.525C166.6 97.175 168.4 99 172 99H182.575V103.5H172ZM199.046 103.5V62.25H203.921V69.675H205.046L203.171 74.25C203.221 70.25 204.271 67.125 206.321 64.875C208.421 62.625 211.321 61.5 215.021 61.5C219.421 61.5 222.896 62.85 225.446 65.55C227.996 68.25 229.271 71.925 229.271 76.575V78.9H224.096V76.8C224.096 73.3 223.221 70.575 221.471 68.625C219.721 66.675 217.246 65.7 214.046 65.7C210.896 65.7 208.421 66.675 206.621 68.625C204.871 70.575 203.996 73.3 203.996 76.8V103.5H199.046ZM249.266 117L255.341 100.725L240.041 62.25H245.516L255.491 88.2C255.941 89.4 256.391 90.65 256.841 91.95C257.291 93.25 257.641 94.275 257.891 95.025C258.141 94.275 258.466 93.25 258.866 91.95C259.316 90.6 259.741 89.325 260.141 88.125L269.516 62.25H274.841L254.441 117H249.266ZM299.187 103.5L285.012 62.25H290.112L300.012 91.8C300.512 93.25 300.987 94.725 301.437 96.225C301.937 97.725 302.287 98.9 302.487 99.75C302.737 98.9 303.087 97.725 303.537 96.225C303.987 94.725 304.462 93.25 304.962 91.8L314.787 62.25H319.812L305.637 103.5H299.187ZM331.708 103.5V99H346.633V66.75H333.583V62.25H351.583V99H365.608V103.5H331.708ZM348.508 54.525C347.058 54.525 345.908 54.15 345.058 53.4C344.208 52.6 343.783 51.525 343.783 50.175C343.783 48.825 344.208 47.75 345.058 46.95C345.908 46.15 347.058 45.75 348.508 45.75C349.958 45.75 351.108 46.15 351.958 46.95C352.808 47.75 353.233 48.825 353.233 50.175C353.233 51.525 352.808 52.6 351.958 53.4C351.108 54.15 349.958 54.525 348.508 54.525ZM389.504 104.25C385.204 104.25 381.779 103.125 379.229 100.875C376.729 98.625 375.479 95.65 375.479 91.95C375.479 88.25 376.679 85.325 379.079 83.175C381.529 81.025 384.754 79.95 388.754 79.95H402.329V75.375C402.329 72.375 401.479 70.05 399.779 68.4C398.129 66.75 395.754 65.925 392.654 65.925C389.854 65.925 387.529 66.575 385.679 67.875C383.879 69.175 382.829 70.925 382.529 73.125H377.579C378.029 69.625 379.629 66.825 382.379 64.725C385.179 62.575 388.604 61.5 392.654 61.5C397.104 61.5 400.654 62.75 403.304 65.25C405.954 67.75 407.279 71.1 407.279 75.3V103.5H402.404V95.325H401.579L402.704 93.975C402.704 97.075 401.504 99.575 399.104 101.475C396.704 103.325 393.504 104.25 389.504 104.25ZM390.779 100.125C394.229 100.125 397.004 99.25 399.104 97.5C401.254 95.75 402.329 93.5 402.329 90.75V83.925H388.754C386.254 83.925 384.229 84.625 382.679 86.025C381.179 87.425 380.429 89.275 380.429 91.575C380.429 94.175 381.354 96.25 383.204 97.8C385.104 99.35 387.629 100.125 390.779 100.125Z" />
<style>
  path {
    fill: #1c1c1c;
  }
</style>
</svg>
